# Blender v2.79 (sub 0) OBJ File: 'chunks_cube_base.blend'
# www.blender.org
mtllib tubecube.mtl
o Cylinder.001
v 0.000000 -19.999996 19.999992
v 0.000000 -19.999992 -20.000010
v 3.901806 -19.615700 19.999992
v 3.901806 -19.615698 -20.000010
v 7.653669 -18.477585 19.999992
v 7.653669 -18.477583 -20.000010
v 11.111404 -16.629387 19.999994
v 11.111404 -16.629387 -20.000010
v 14.142136 -14.142131 19.999992
v 14.142136 -14.142127 -20.000008
v 16.629393 -11.111399 19.999994
v 16.629393 -11.111398 -20.000008
v 18.477591 -7.653663 19.999996
v 18.477591 -7.653661 -20.000008
v 19.615705 -3.901802 19.999994
v 19.615705 -3.901799 -20.000008
v 20.000000 0.000002 19.999994
v 20.000000 0.000006 -20.000008
v 19.615705 3.901808 19.999992
v 19.615705 3.901812 -20.000008
v 18.477591 7.653670 19.999994
v 18.477591 7.653674 -20.000008
v 16.629393 11.111407 19.999994
v 16.629393 11.111411 -20.000004
v 14.142136 14.142141 19.999994
v 14.142136 14.142142 -20.000004
v 11.111403 16.629398 19.999996
v 11.111403 16.629400 -20.000004
v 7.653666 18.477596 19.999996
v 7.653666 18.477600 -20.000004
v 3.901802 19.615711 19.999996
v 3.901802 19.615713 -20.000004
v -0.000007 20.000004 19.999996
v -0.000007 20.000010 -20.000004
v -3.901814 19.615707 19.999996
v -3.901814 19.615711 -20.000004
v -7.653677 18.477592 19.999996
v -7.653677 18.477594 -20.000004
v -11.111414 16.629391 19.999996
v -11.111414 16.629393 -20.000004
v -14.142145 14.142132 19.999994
v -14.142145 14.142134 -20.000004
v -16.629400 11.111398 19.999994
v -16.629400 11.111401 -20.000004
v -18.477596 7.653658 19.999994
v -18.477596 7.653662 -20.000008
v -19.615709 3.901794 19.999994
v -19.615709 3.901796 -20.000008
v -19.999998 -0.000014 19.999996
v -19.999998 -0.000012 -20.000008
v -19.615702 -3.901823 19.999992
v -19.615702 -3.901820 -20.000008
v -18.477581 -7.653685 19.999996
v -18.477581 -7.653680 -20.000008
v -16.629379 -11.111421 19.999992
v -16.629379 -11.111417 -20.000008
v -14.142118 -14.142149 19.999992
v -14.142118 -14.142146 -20.000008
v -11.111382 -16.629402 19.999992
v -11.111382 -16.629400 -20.000010
v -7.653642 -18.477596 19.999992
v -7.653642 -18.477594 -20.000010
v -3.901776 -19.615705 19.999992
v -3.901776 -19.615704 -20.000010
vt 0.500001 0.999999
vt 0.562501 0.999999
vt 0.562500 -0.000001
vt 0.500000 -0.000001
vt 0.625001 0.999999
vt 0.625000 -0.000001
vt 0.687501 0.999999
vt 0.687500 -0.000002
vt 0.750000 0.999998
vt 0.750000 -0.000002
vt 0.812500 0.999998
vt 0.812500 -0.000002
vt 0.875000 0.999998
vt 0.875000 -0.000002
vt 0.937500 0.999998
vt 0.937500 -0.000002
vt 1.000000 0.999998
vt 1.000000 -0.000002
vt 0.937499 1.000000
vt 0.937500 -0.000000
vt 0.874999 1.000000
vt 0.875000 -0.000000
vt 0.812499 1.000000
vt 0.812500 -0.000000
vt 0.749999 1.000000
vt 0.750000 -0.000001
vt 0.687500 0.999999
vt 0.687500 -0.000001
vt 0.625000 1.000000
vt 0.625000 -0.000001
vt 0.562500 1.000000
vt 0.562500 -0.000001
vt 0.500000 0.999999
vt 0.500000 -0.000001
vt 0.437500 0.999999
vt 0.437500 -0.000001
vt 0.375001 1.000000
vt 0.375000 -0.000001
vt 0.312501 1.000000
vt 0.312500 -0.000000
vt 0.250001 1.000000
vt 0.250000 0.000000
vt 0.187501 1.000000
vt 0.187500 0.000000
vt 0.125001 1.000000
vt 0.125000 0.000000
vt 0.062501 1.000000
vt 0.062500 0.000000
vt 0.000001 1.000001
vt -0.000000 0.000001
vt 0.062503 1.000001
vt 0.062500 0.000001
vt 0.125003 1.000001
vt 0.125000 0.000001
vt 0.187503 1.000001
vt 0.187500 0.000000
vt 0.250002 1.000000
vt 0.250000 0.000000
vt 0.312502 1.000000
vt 0.312500 -0.000000
vt 0.375002 1.000000
vt 0.375000 -0.000000
vt 0.437502 0.999999
vt 0.437500 -0.000001
vn 0.0000 1.0000 0.0000
vn -0.1951 0.9808 0.0000
vn -0.3827 0.9239 0.0000
vn -0.5556 0.8314 0.0000
vn -0.7071 0.7071 0.0000
vn -0.8314 0.5556 0.0000
vn -0.9239 0.3827 0.0000
vn -0.9808 0.1951 0.0000
vn -1.0000 0.0000 0.0000
vn -0.9808 -0.1951 0.0000
vn -0.9239 -0.3827 0.0000
vn -0.8314 -0.5556 0.0000
vn -0.7071 -0.7071 0.0000
vn -0.5556 -0.8314 0.0000
vn -0.3827 -0.9239 0.0000
vn -0.1951 -0.9808 0.0000
vn 0.0000 -1.0000 0.0000
vn 0.1951 -0.9808 0.0000
vn 0.3827 -0.9239 0.0000
vn 0.5556 -0.8314 0.0000
vn 0.7071 -0.7071 0.0000
vn 0.8314 -0.5556 0.0000
vn 0.9239 -0.3827 0.0000
vn 0.9808 -0.1951 0.0000
vn 1.0000 0.0000 0.0000
vn 0.9808 0.1951 0.0000
vn 0.9239 0.3827 0.0000
vn 0.8314 0.5556 0.0000
vn 0.7071 0.7071 0.0000
vn 0.5556 0.8314 0.0000
vn 0.3827 0.9239 0.0000
vn 0.1951 0.9808 0.0000
g Cylinder.001_Cylinder.001_tube
usemtl tube
s 1
f 1/1/1 3/2/2 4/3/2 2/4/1
f 3/2/2 5/5/3 6/6/3 4/3/2
f 5/5/3 7/7/4 8/8/4 6/6/3
f 7/7/4 9/9/5 10/10/5 8/8/4
f 9/9/5 11/11/6 12/12/6 10/10/5
f 11/11/6 13/13/7 14/14/7 12/12/6
f 13/13/7 15/15/8 16/16/8 14/14/7
f 15/15/8 17/17/9 18/18/9 16/16/8
f 17/17/9 19/19/10 20/20/10 18/18/9
f 19/19/10 21/21/11 22/22/11 20/20/10
f 21/21/11 23/23/12 24/24/12 22/22/11
f 23/23/12 25/25/13 26/26/13 24/24/12
f 25/25/13 27/27/14 28/28/14 26/26/13
f 27/27/14 29/29/15 30/30/15 28/28/14
f 29/29/15 31/31/16 32/32/16 30/30/15
f 31/31/16 33/33/17 34/34/17 32/32/16
f 33/33/17 35/35/18 36/36/18 34/34/17
f 35/35/18 37/37/19 38/38/19 36/36/18
f 37/37/19 39/39/20 40/40/20 38/38/19
f 39/39/20 41/41/21 42/42/21 40/40/20
f 41/41/21 43/43/22 44/44/22 42/42/21
f 43/43/22 45/45/23 46/46/23 44/44/22
f 45/45/23 47/47/24 48/48/24 46/46/23
f 47/47/24 49/49/25 50/50/25 48/48/24
f 49/49/25 51/51/26 52/52/26 50/50/25
f 51/51/26 53/53/27 54/54/27 52/52/26
f 53/53/27 55/55/28 56/56/28 54/54/27
f 55/55/28 57/57/29 58/58/29 56/56/28
f 57/57/29 59/59/30 60/60/30 58/58/29
f 59/59/30 61/61/31 62/62/31 60/60/30
f 61/61/31 63/63/32 64/64/32 62/62/31
f 63/63/32 1/1/1 2/4/1 64/64/32
